<svg width="40" height="40" viewBox="0 0 40 40" fill="none" xmlns="http://www.w3.org/2000/svg">
<path d="M38.8888 0H7.77791C7.16431 0 6.66667 0.49764 6.66667 1.11125V6.66667H1.11125C0.49764 6.66667 0 7.16431 0 7.77791V35.5554C0.00284831 38.009 1.99097 39.9972 4.44458 40H34.4446C37.5114 39.9967 39.9967 37.5114 40 34.4446V1.11125C40 0.49764 39.5024 0 38.8888 0ZM2.22209 35.5554V8.88875H6.66667V35.5554C6.66667 36.783 5.67179 37.7779 4.44458 37.7779C3.21696 37.7779 2.22209 36.783 2.22209 35.5554ZM37.7779 34.4446C37.7759 36.2846 36.2846 37.7759 34.4446 37.7779H8.27067C8.67106 37.1053 8.88428 36.3383 8.88875 35.5554V2.22209H37.7779V34.4446Z" fill="white"/>
<path d="M14.4446 8.88875H32.2221C32.8357 8.88875 33.3333 8.39152 33.3333 7.77791C33.3333 7.16431 32.8357 6.66667 32.2221 6.66667H14.4446C13.831 6.66667 13.3333 7.16431 13.3333 7.77791C13.3333 8.39152 13.831 8.88875 14.4446 8.88875Z" fill="white"/>
<path d="M14.4446 15.5554H32.2221C32.8357 15.5554 33.3333 15.0582 33.3333 14.4446C33.3333 13.831 32.8357 13.3333 32.2221 13.3333H14.4446C13.831 13.3333 13.3333 13.831 13.3333 14.4446C13.3333 15.0582 13.831 15.5554 14.4446 15.5554Z" fill="white"/>
<path d="M14.4446 22.2221H32.2221C32.8357 22.2221 33.3333 21.7248 33.3333 21.1112C33.3333 20.4976 32.8357 20 32.2221 20H14.4446C13.831 20 13.3333 20.4976 13.3333 21.1112C13.3333 21.7248 13.831 22.2221 14.4446 22.2221Z" fill="white"/>
<path d="M14.4446 28.8887H32.2221C32.8357 28.8887 33.3333 28.3915 33.3333 27.7779C33.3333 27.1643 32.8357 26.6667 32.2221 26.6667H14.4446C13.831 26.6667 13.3333 27.1643 13.3333 27.7779C13.3333 28.3915 13.831 28.8887 14.4446 28.8887Z" fill="white"/>
</svg>
