<svg width="40" height="40" viewBox="0 0 40 40" fill="none" xmlns="http://www.w3.org/2000/svg">
<path d="M5.58184 25.9508C5.313 25.9508 5.05517 25.844 4.86508 25.6539C4.67498 25.4638 4.56819 25.206 4.56819 24.9372V17.7064C4.56819 17.4376 4.67498 17.1798 4.86508 16.9897C5.05517 16.7996 5.313 16.6928 5.58184 16.6928C5.85067 16.6928 6.1085 16.7996 6.29859 16.9897C6.48869 17.1798 6.59549 17.4376 6.59549 17.7064V24.9372C6.59549 25.206 6.48869 25.4638 6.29859 25.6539C6.1085 25.844 5.85067 25.9508 5.58184 25.9508Z" fill="white"/>
<path d="M10.1493 9.80539C9.17968 9.80539 8.2318 9.51785 7.42556 8.97913C6.61931 8.44042 5.99092 7.67472 5.61985 6.77887C5.24878 5.88302 5.15169 4.89726 5.34086 3.94623C5.53003 2.9952 5.99697 2.12162 6.68262 1.43597C7.36827 0.750313 8.24185 0.283377 9.19288 0.094206C10.1439 -0.0949654 11.1297 0.00212431 12.0255 0.373197C12.9214 0.744271 13.6871 1.37266 14.2258 2.1789C14.7645 2.98515 15.052 3.93303 15.052 4.90269C15.0506 6.20253 14.5336 7.44872 13.6145 8.36784C12.6954 9.28696 11.4492 9.80396 10.1493 9.80539ZM10.1493 2.0273C9.58065 2.0273 9.02472 2.19594 8.55187 2.51189C8.07901 2.82785 7.71046 3.27692 7.49283 3.80233C7.2752 4.32774 7.21826 4.90588 7.32921 5.46366C7.44015 6.02143 7.71401 6.53377 8.11614 6.9359C8.51827 7.33803 9.03061 7.61189 9.58838 7.72283C10.1462 7.83378 10.7243 7.77684 11.2497 7.55921C11.7751 7.34158 12.2242 6.97303 12.5401 6.50017C12.8561 6.02732 13.0247 5.47139 13.0247 4.90269C13.0238 4.14037 12.7206 3.40952 12.1816 2.87047C11.6425 2.33143 10.9117 2.0282 10.1493 2.0273Z" fill="white"/>
<path d="M26.1333 17.3888C25.9375 17.389 25.7459 17.3324 25.5816 17.226C25.4173 17.1196 25.2874 16.968 25.2074 16.7893C25.1274 16.6107 25.1009 16.4127 25.131 16.2193C25.1611 16.0259 25.2466 15.8453 25.3771 15.6994L30.8846 9.52562C30.9733 9.42627 31.0808 9.34538 31.2008 9.28755C31.3208 9.22972 31.451 9.1961 31.584 9.1886C31.717 9.1811 31.8502 9.19988 31.9759 9.24385C32.1017 9.28782 32.2175 9.35612 32.3169 9.44486C32.4162 9.53361 32.4971 9.64105 32.5549 9.76105C32.6127 9.88106 32.6464 10.0113 32.6539 10.1443C32.6614 10.2773 32.6426 10.4105 32.5986 10.5362C32.5547 10.6619 32.4864 10.7778 32.3976 10.8772L26.8901 17.0476C26.7952 17.1547 26.6787 17.2404 26.5482 17.2992C26.4178 17.3581 26.2764 17.3886 26.1333 17.3888Z" fill="white"/>
<path d="M36.959 26.5421H18.7721C18.5033 26.5421 18.2455 26.4353 18.0554 26.2452C17.8653 26.0551 17.7585 25.7973 17.7585 25.5284C17.7585 25.2596 17.8653 25.0018 18.0554 24.8117C18.2455 24.6216 18.5033 24.5148 18.7721 24.5148H36.959C37.2279 24.5148 37.4857 24.408 37.6758 24.2179C37.8659 24.0278 37.9727 23.77 37.9727 23.5011V3.06393C37.9727 2.79509 37.8659 2.53727 37.6758 2.34717C37.4857 2.15707 37.2279 2.05028 36.959 2.05028H17.0739C16.8051 2.05028 16.5473 1.94348 16.3572 1.75339C16.1671 1.56329 16.0603 1.30547 16.0603 1.03663C16.0603 0.767792 16.1671 0.509966 16.3572 0.31987C16.5473 0.129773 16.8051 0.0229785 17.0739 0.0229785H36.959C37.7656 0.0229785 38.539 0.343364 39.1093 0.913653C39.6796 1.48394 40 2.25742 40 3.06393V23.5011C40 24.3077 39.6796 25.0811 39.1093 25.6514C38.539 26.2217 37.7656 26.5421 36.959 26.5421Z" fill="white"/>
<path d="M10.1493 40.0007H5.58184C5.313 40.0007 5.05517 39.8939 4.86508 39.7038C4.67498 39.5137 4.56819 39.2559 4.56819 38.987V24.9372C4.56819 24.6683 4.67498 24.4105 4.86508 24.2204C5.05517 24.0303 5.313 23.9235 5.58184 23.9235C5.85067 23.9235 6.1085 24.0303 6.2986 24.2204C6.48869 24.4105 6.59549 24.6683 6.59549 24.9372L6.59549 37.9734H10.1493C10.4182 37.9734 10.676 38.0802 10.8661 38.2703C11.0562 38.4604 11.163 38.7182 11.163 38.987C11.163 39.2559 11.0562 39.5137 10.8661 39.7038C10.676 39.8939 10.4182 40.0007 10.1493 40.0007Z" fill="white"/>
<path d="M14.7175 40.0007L10.1493 40.0007C9.88051 40.0007 9.62268 39.8939 9.43258 39.7038C9.24249 39.5137 9.13569 39.2559 9.13569 38.987V25.5285C9.13569 25.2596 9.24249 25.0018 9.43258 24.8117C9.62268 24.6216 9.88051 24.5148 10.1493 24.5148C10.4182 24.5148 10.676 24.6216 10.8661 24.8117C11.0562 25.0018 11.163 25.2596 11.163 25.5285V37.9734H13.7039V18.8086C13.7038 18.3879 13.8285 17.9767 14.0622 17.6269C14.296 17.2771 14.6282 17.0044 15.0169 16.8435C15.4055 16.6825 15.8332 16.6405 16.2458 16.7226C16.6584 16.8048 17.0374 17.0075 17.3348 17.305L18.9235 18.8917C19.0412 19.01 19.1812 19.1037 19.3353 19.1675C19.4895 19.2313 19.6548 19.2639 19.8216 19.2634H24.5391C24.7082 19.2635 24.8756 19.2297 25.0315 19.1643C25.1873 19.0988 25.3286 19.0028 25.4469 18.882C25.5652 18.7613 25.6583 18.6181 25.7205 18.4609C25.7828 18.3037 25.8131 18.1357 25.8096 17.9666C25.7954 17.2807 25.2054 16.7232 24.4945 16.7232H20.765C20.4962 16.723 20.2386 16.616 20.0487 16.4259L17.8666 14.2445C17.4707 13.8463 16.9998 13.5307 16.481 13.3158C15.9623 13.101 15.406 12.9913 14.8446 12.993H14.058L12.526 14.2668C11.8586 14.8215 11.0182 15.1251 10.1504 15.1251C9.28255 15.1251 8.44209 14.8215 7.7747 14.2668L6.24138 12.993H5.58183C4.63944 12.994 3.73596 13.3689 3.06958 14.0353C2.40321 14.7016 2.02837 15.6051 2.0273 16.5475C2.0273 16.8163 1.92051 17.0742 1.73041 17.2643C1.54031 17.4544 1.28249 17.5612 1.01365 17.5612C0.744814 17.5612 0.486987 17.4544 0.296891 17.2643C0.106795 17.0742 0 16.8163 0 16.5475C0.00160985 15.0676 0.590211 13.6488 1.63666 12.6023C2.68311 11.5559 4.10193 10.9673 5.58183 10.9657H6.60765C6.84443 10.9657 7.07371 11.0487 7.25571 11.2002L9.06947 12.7078C9.37303 12.9606 9.75562 13.0991 10.1507 13.0991C10.5458 13.0991 10.9284 12.9606 11.2319 12.7078L13.0443 11.1995C13.2263 11.048 13.4556 10.9651 13.6924 10.965H14.8459C15.6737 10.9627 16.4937 11.1246 17.2585 11.4414C18.0232 11.7582 18.7176 12.2236 19.3013 12.8105L21.1866 14.6959H24.4979C26.3049 14.6959 27.8038 16.1448 27.8396 17.9261C27.8485 18.3647 27.7698 18.8007 27.6081 19.2085C27.4464 19.6163 27.2049 19.9877 26.8979 20.3011C26.5908 20.6144 26.2244 20.8633 25.8199 21.0333C25.4155 21.2032 24.9812 21.2907 24.5425 21.2907H19.8189C19.3857 21.2919 18.9566 21.2072 18.5564 21.0415C18.1562 20.8757 17.7929 20.6322 17.4875 20.325L15.9015 18.737C15.8885 18.7241 15.8723 18.715 15.8546 18.7106C15.8368 18.7062 15.8183 18.7067 15.8008 18.712C15.781 18.7187 15.7638 18.7314 15.7517 18.7484C15.7396 18.7654 15.7331 18.7857 15.7332 18.8066V38.985C15.7335 39.1185 15.7074 39.2507 15.6564 39.374C15.6055 39.4973 15.5307 39.6094 15.4363 39.7038C15.3419 39.7982 15.2299 39.873 15.1065 39.9239C14.9832 39.9749 14.851 40.0009 14.7175 40.0007Z" fill="white"/>
<path d="M3.29774 28.2349C2.4234 28.234 1.58513 27.8863 0.966874 27.268C0.348621 26.6498 0.000894467 25.8115 0 24.9372V16.5475C0 16.2787 0.106795 16.0202 0.296891 15.8301C0.486987 15.64 0.744814 15.5332 1.01365 15.5332C1.28249 15.5332 1.54031 15.64 1.73041 15.8301C1.92051 16.0202 2.0273 16.2787 2.0273 16.5475L2.0273 24.9372C2.0273 25.2741 2.16115 25.5972 2.3994 25.8355C2.63766 26.0737 2.9608 26.2076 3.29774 26.2076C3.63469 26.2076 3.95783 26.0737 4.19608 25.8355C4.43434 25.5972 4.56819 25.2741 4.56819 24.9372C4.56819 24.6683 4.67498 24.4105 4.86508 24.2204C5.05517 24.0303 5.313 23.9235 5.58184 23.9235C5.85067 23.9235 6.1085 24.0303 6.2986 24.2204C6.48869 24.4105 6.59549 24.6683 6.59549 24.9372C6.59459 25.8115 6.24686 26.6498 5.62861 27.268C5.01036 27.8863 4.17208 28.234 3.29774 28.2349Z" fill="white"/>
<path d="M31.8982 40.0007H1.01568C0.746841 40.0007 0.489015 39.8939 0.298918 39.7038C0.108822 39.5137 0.00202715 39.2559 0.00202715 38.987C0.00202715 38.7182 0.108822 38.4604 0.298918 38.2703C0.489015 38.0802 0.746841 37.9734 1.01568 37.9734H31.8982C32.1671 37.9734 32.4249 38.0802 32.615 38.2703C32.8051 38.4604 32.9119 38.7182 32.9119 38.987C32.9119 39.2559 32.8051 39.5137 32.615 39.7038C32.4249 39.8939 32.1671 40.0007 31.8982 40.0007Z" fill="white"/>
<path d="M26.384 11.2143H21.1285C20.8597 11.2143 20.6019 11.1076 20.4118 10.9175C20.2217 10.7274 20.1149 10.4695 20.1149 10.2007C20.1149 9.93187 20.2217 9.67404 20.4118 9.48395C20.6019 9.29385 20.8597 9.18706 21.1285 9.18706H26.384C26.6528 9.18706 26.9106 9.29385 27.1007 9.48395C27.2908 9.67404 27.3976 9.93187 27.3976 10.2007C27.3976 10.4695 27.2908 10.7274 27.1007 10.9175C26.9106 11.1076 26.6528 11.2143 26.384 11.2143Z" fill="white"/>
<path d="M31.6394 6.63198H21.1285C20.8597 6.63198 20.6019 6.52519 20.4118 6.33509C20.2217 6.14499 20.1149 5.88717 20.1149 5.61833C20.1149 5.34949 20.2217 5.09167 20.4118 4.90157C20.6019 4.71147 20.8597 4.60468 21.1285 4.60468H31.6394C31.9083 4.60468 32.1661 4.71147 32.3562 4.90157C32.5463 5.09167 32.6531 5.34949 32.6531 5.61833C32.6531 5.88717 32.5463 6.14499 32.3562 6.33509C32.1661 6.52519 31.9083 6.63198 31.6394 6.63198Z" fill="white"/>
</svg>
