<svg width="21" height="30" viewBox="0 0 21 30" fill="none" xmlns="http://www.w3.org/2000/svg">
<path d="M4.89279 1.09843C1.126 2.80493 -0.550344 7.25826 1.15615 11.025L7.92644 25.9692C9.31299 29.0298 12.9312 30.3918 15.9918 29.0052C19.0524 27.6187 20.4144 24.0004 19.0278 20.9399L13.0313 7.70359C11.9647 5.34925 9.1815 4.30159 6.82716 5.3682C4.47281 6.43481 3.42515 9.21798 4.49176 11.5723L9.52111 22.6737C9.73505 23.1459 10.2897 23.3547 10.7619 23.1408C11.2342 22.9269 11.443 22.3722 11.229 21.9L6.19966 10.7986C5.55978 9.38614 6.18847 7.71599 7.6009 7.0761C9.01334 6.43621 10.6835 7.0649 11.3234 8.47734L17.3199 21.7136C18.2798 23.8323 17.3367 26.3375 15.2181 27.2973C13.0994 28.2572 10.5942 27.3141 9.63434 25.1955L2.86406 10.2513C1.5839 7.42557 2.84081 4.0865 5.66654 2.80634C8.49227 1.52617 11.8313 2.78309 13.1115 5.60882L18.9146 18.4181C19.1285 18.8903 19.6832 19.0991 20.1554 18.8852C20.6277 18.6712 20.8364 18.1166 20.6225 17.6444L14.8194 4.83507C13.1129 1.06828 8.65957 -0.608065 4.89279 1.09843Z" fill="#277EFB"/>
</svg>
