<svg display="none" xmlns="http://www.w3.org/2000/svg">
    <symbol id="prevArrow" viewBox="0 0 24 13">
        <g>
            <path d="M22.8592 5.42352L3.7214 5.42352L7.30682 1.86842C8.3367 0.84728 6.79188 -0.68438 5.762 0.336761L0.316848 5.74423C-0.105616 6.16561 -0.105616 6.84616 0.316848 7.26754L5.762 12.6729C5.96917 12.884 6.25433 13.0024 6.55143 13C7.53216 12.9998 8.01346 11.8154 7.30682 11.1411L3.71289 7.58601L22.9156 7.58601C24.426 7.51171 24.3133 5.34897 22.8592 5.42352Z"/>
        </g>
    </symbol>
    <symbol id="nextArrow" viewBox="0 0 24 13">
        <g>
            <path d="M1.14076 7.57648H20.2786L16.6932 11.1316C15.6633 12.1527 17.2081 13.6844 18.238 12.6632L23.6832 7.25577C24.1056 6.83439 24.1056 6.15384 23.6832 5.73246L18.238 0.327102C18.0308 0.116023 17.7457 -0.0024124 17.4486 3.726e-05C16.4678 0.000159743 15.9865 1.18458 16.6932 1.85889L20.2871 5.41399H1.08437C-0.426039 5.48829 -0.313262 7.65103 1.14076 7.57648Z"/>
        </g>
    </symbol>
    <symbol id="success" viewBox="0 0 25 18">
        <g>
            <path d="M24.4191 0.581067C23.6456 -0.193933 22.3895 -0.193445 21.615 0.581067L8.99467 13.2095L3.38548 7.59696C2.61094 6.82196 1.35544 6.82196 0.580901 7.59696C-0.193634 8.37196 -0.193634 9.62822 0.580901 10.4032L7.59209 17.4186C7.97912 17.8059 8.4866 18 8.99414 18C9.50167 18 10.0096 17.8064 10.3967 17.4186L24.4191 3.38728C25.1936 2.61282 25.1936 1.35602 24.4191 0.581067Z" fill="#8CEB41"/>
        </g>
    </symbol>
    <symbol id="error" viewBox="0 0 329.26933 329">
        <g>
            <path d='m194.800781 164.769531 128.210938-128.214843c8.34375-8.339844 8.34375-21.824219 0-30.164063-8.339844-8.339844-21.824219-8.339844-30.164063 0l-128.214844 128.214844-128.210937-128.214844c-8.34375-8.339844-21.824219-8.339844-30.164063 0-8.34375 8.339844-8.34375 21.824219 0 30.164063l128.210938 128.214843-128.210938 128.214844c-8.34375 8.339844-8.34375 21.824219 0 30.164063 4.15625 4.160156 9.621094 6.25 15.082032 6.25 5.460937 0 10.921875-2.089844 15.082031-6.25l128.210937-128.214844 128.214844 128.214844c4.160156 4.160156 9.621094 6.25 15.082032 6.25 5.460937 0 10.921874-2.089844 15.082031-6.25 8.34375-8.339844 8.34375-21.824219 0-30.164063zm0 0' fill='#f25858' data-original='#000000'/>
        </g>
    </symbol>
</svg>
